<!-- Generated by IcoMoon.io -->
<svg version="1.1" xmlns="http://www.w3.org/2000/svg" width="60" height="32" viewBox="0 0 60 32">
<title>client-logo-4</title>
<path fill="#2196f3" d="M9.229 9.548h-0.002c-1.684 0-3.048 1.33-3.048 2.971v0.002c0 1.641 1.365 2.971 3.048 2.971h0.002c1.684 0 3.048-1.33 3.048-2.971v-0.002c0-1.641-1.365-2.971-3.048-2.971zM31.73 8.599c-0.005-2.279-0.936-4.463-2.589-6.074s-3.894-2.519-6.233-2.524c-2.339 0.004-4.581 0.911-6.235 2.523s-2.586 3.796-2.59 6.076v12.566s17.645-1.915 17.647-12.564v-0.002zM0 25.289c0.004 1.586 0.652 3.105 1.803 4.226s2.709 1.753 4.336 1.758c1.627-0.005 3.185-0.636 4.336-1.757s1.799-2.64 1.803-4.225v-8.744s-12.278 1.334-12.278 8.742zM6.139 26.856c-0.318 0-0.629-0.092-0.893-0.264s-0.47-0.417-0.592-0.703-0.154-0.601-0.091-0.905c0.062-0.304 0.215-0.583 0.44-0.802s0.511-0.368 0.823-0.429c0.312-0.060 0.635-0.029 0.929 0.089s0.545 0.319 0.721 0.577c0.17 0.244 0.271 0.546 0.271 0.872 0 0.216-0.045 0.422-0.125 0.609l0.004-0.010c-0.168 0.389-0.476 0.691-0.859 0.847l-0.011 0.004c-0.195 0.079-0.405 0.12-0.617 0.12v-0.006zM18.671 25.884h-1.256v1.297h-0.654v-3.174h2.067v0.53h-1.413v0.82h1.256v0.528zM21.815 25.666c0 0.312-0.055 0.587-0.166 0.822s-0.269 0.417-0.475 0.545c-0.205 0.128-0.44 0.192-0.706 0.192-0.263 0-0.498-0.063-0.704-0.19s-0.366-0.307-0.48-0.541c-0.109-0.23-0.172-0.499-0.172-0.783 0-0.010 0-0.020 0-0.029l-0 0.001v-0.157c0-0.312 0.056-0.587 0.168-0.824 0.105-0.228 0.269-0.415 0.472-0.544l0.005-0.003c0.206-0.128 0.442-0.192 0.706-0.192s0.499 0.064 0.704 0.192c0.206 0.126 0.366 0.309 0.477 0.547 0.113 0.237 0.17 0.511 0.17 0.822v0.142zM21.152 25.522c0-0.333-0.060-0.586-0.179-0.759s-0.289-0.259-0.51-0.259c-0.007-0-0.016-0-0.024-0-0.201 0-0.377 0.101-0.482 0.255l-0.001 0.002c-0.119 0.17-0.18 0.42-0.181 0.75v0.155c0 0.324 0.060 0.576 0.179 0.754s0.291 0.268 0.515 0.268c0.22 0 0.388-0.086 0.506-0.257 0.118-0.173 0.177-0.424 0.179-0.754v-0.155zM23.936 26.348c0-0.006 0.001-0.012 0.001-0.019 0-0.108-0.051-0.203-0.131-0.264l-0.001-0.001c-0.087-0.067-0.244-0.137-0.471-0.209-0.21-0.065-0.388-0.139-0.558-0.227l0.019 0.009c-0.36-0.195-0.541-0.457-0.541-0.787 0-0.172 0.048-0.324 0.144-0.458 0.106-0.14 0.246-0.249 0.41-0.314l0.006-0.002c0.182-0.076 0.385-0.113 0.61-0.113 0.227 0 0.429 0.041 0.606 0.124 0.171 0.076 0.311 0.195 0.41 0.344l0.002 0.003c0.099 0.15 0.148 0.32 0.148 0.51h-0.654c0-0.007 0.001-0.016 0.001-0.024 0-0.124-0.053-0.236-0.137-0.314l-0-0c-0.092-0.081-0.22-0.122-0.386-0.122-0.011-0.001-0.023-0.001-0.036-0.001-0.126 0-0.242 0.039-0.339 0.104l0.002-0.001c-0.081 0.058-0.133 0.152-0.133 0.258 0 0.003 0 0.005 0 0.008v-0c0 0.103 0.052 0.19 0.155 0.259 0.105 0.070 0.258 0.135 0.46 0.196 0.372 0.112 0.643 0.251 0.813 0.416s0.255 0.372 0.255 0.619c0 0.009 0.001 0.020 0.001 0.030 0 0.253-0.122 0.477-0.311 0.616l-0.002 0.001c-0.208 0.156-0.488 0.233-0.839 0.233-0.244 0-0.467-0.044-0.667-0.133-0.189-0.080-0.344-0.206-0.458-0.365l-0.002-0.003c-0.099-0.147-0.157-0.328-0.157-0.522 0-0.007 0-0.013 0-0.020l-0 0.001h0.656c0 0.35 0.209 0.525 0.628 0.525 0.011 0.001 0.024 0.001 0.037 0.001 0.121 0 0.235-0.035 0.33-0.097l-0.002 0.001c0.080-0.057 0.131-0.15 0.131-0.255 0-0.004-0-0.008-0-0.012l0 0.001zM27.427 24.536h-0.972v2.645h-0.654v-2.645h-0.959v-0.53h2.586v0.53zM29.712 25.805h-1.256v0.85h1.474v0.525h-2.128v-3.174h2.124v0.53h-1.469v0.757h1.256v0.512zM31.489 26.019h-0.521v1.162h-0.654v-3.174h1.18c0.375 0 0.664 0.084 0.868 0.251s0.305 0.403 0.305 0.709c0 0.011 0.001 0.023 0.001 0.036 0 0.188-0.053 0.363-0.145 0.511l0.002-0.004c-0.105 0.152-0.249 0.271-0.419 0.342l-0.006 0.002 0.687 1.297v0.030h-0.702l-0.595-1.162zM30.967 25.489h0.528c0.164 0 0.291-0.041 0.382-0.124 0.090-0.084 0.135-0.2 0.135-0.347 0-0.008 0.001-0.017 0.001-0.026 0-0.127-0.049-0.242-0.13-0.327l0 0c-0.084-0.086-0.214-0.129-0.39-0.129h-0.525v0.953zM34.931 26.063v1.118h-0.654v-3.174h1.238c0.238 0 0.448 0.044 0.628 0.131 0.176 0.082 0.319 0.21 0.417 0.369l0.002 0.004c0.097 0.16 0.146 0.342 0.146 0.547 0 0.311-0.107 0.557-0.321 0.737-0.212 0.179-0.507 0.268-0.883 0.268h-0.573zM34.931 25.533h0.584c0.173 0 0.305-0.041 0.395-0.122 0.092-0.081 0.137-0.198 0.137-0.349 0-0.156-0.046-0.281-0.137-0.377s-0.218-0.145-0.379-0.148h-0.6v0.996zM39.069 25.805h-1.256v0.85h1.474v0.525h-2.128v-3.174h2.124v0.53h-1.469v0.757h1.256v0.512zM42.104 24.536h-0.972v2.645h-0.654v-2.645h-0.959v-0.53h2.586v0.53zM44.389 25.805h-1.256v0.85h1.474v0.525h-2.128v-3.174h2.124v0.53h-1.469v0.757h1.256v0.512zM46.166 26.019h-0.521v1.162h-0.654v-3.174h1.179c0.375 0 0.664 0.084 0.868 0.251s0.305 0.403 0.305 0.709c0 0.011 0.001 0.023 0.001 0.036 0 0.188-0.053 0.363-0.145 0.511l0.002-0.004c-0.105 0.152-0.249 0.271-0.419 0.342l-0.006 0.002 0.687 1.297v0.030h-0.702l-0.595-1.162zM45.645 25.489h0.528c0.164 0 0.291-0.041 0.382-0.124 0.090-0.084 0.135-0.2 0.135-0.347 0-0.008 0.001-0.017 0.001-0.026 0-0.127-0.049-0.242-0.13-0.327l0 0c-0.084-0.086-0.214-0.129-0.39-0.129h-0.525v0.953zM49.489 26.348c0-0.006 0.001-0.012 0.001-0.019 0-0.108-0.051-0.203-0.131-0.264l-0.001-0.001c-0.087-0.067-0.244-0.137-0.471-0.209-0.209-0.065-0.387-0.139-0.557-0.227l0.019 0.009c-0.36-0.195-0.541-0.457-0.541-0.787 0-0.172 0.048-0.324 0.144-0.458 0.106-0.14 0.246-0.249 0.41-0.314l0.006-0.002c0.182-0.076 0.385-0.113 0.61-0.113 0.227 0 0.429 0.041 0.606 0.124 0.171 0.076 0.311 0.195 0.41 0.344l0.002 0.003c0.099 0.15 0.148 0.32 0.148 0.51h-0.654c0-0.007 0.001-0.016 0.001-0.024 0-0.124-0.053-0.236-0.137-0.314l-0-0c-0.092-0.081-0.22-0.122-0.386-0.122-0.011-0.001-0.023-0.001-0.036-0.001-0.126 0-0.242 0.039-0.339 0.104l0.002-0.001c-0.081 0.058-0.133 0.152-0.133 0.258 0 0.003 0 0.005 0 0.008v-0c0 0.103 0.052 0.19 0.155 0.259 0.105 0.070 0.258 0.135 0.46 0.196 0.372 0.112 0.643 0.251 0.813 0.416s0.255 0.372 0.255 0.619c0 0.009 0.001 0.020 0.001 0.030 0 0.253-0.122 0.477-0.311 0.616l-0.002 0.001c-0.208 0.156-0.488 0.233-0.839 0.233-0.244 0-0.467-0.044-0.667-0.133-0.188-0.080-0.344-0.206-0.458-0.365l-0.002-0.003c-0.099-0.147-0.157-0.328-0.157-0.522 0-0.007 0-0.013 0-0.020l-0 0.001h0.656c0 0.35 0.209 0.525 0.628 0.525 0.011 0.001 0.024 0.001 0.037 0.001 0.121 0 0.234-0.035 0.33-0.097l-0.002 0.001c0.080-0.057 0.131-0.15 0.131-0.255 0-0.004-0-0.008-0-0.012l0 0.001z"></path>
</svg>
