<!-- Generated by IcoMoon.io -->
<svg version="1.1" xmlns="http://www.w3.org/2000/svg" width="62" height="32" viewBox="0 0 62 32">
<title>client-logo-6</title>
<path fill="#afb1b8" d="M31.124 14.854c-0.251-0.36-0.402-0.806-0.402-1.287 0-0.051 0.002-0.101 0.005-0.15l-0 0.007v-2.075c0-0.636 0.132-1.119 0.395-1.45s0.715-0.495 1.356-0.494c0.602 0 1.029 0.141 1.282 0.422 0.276 0.359 0.41 0.798 0.379 1.241v0.488h-1.077v-0.494c0-0.019 0.001-0.041 0.001-0.064 0-0.148-0.012-0.293-0.034-0.435l0.002 0.016c-0.018-0.115-0.073-0.214-0.154-0.287l-0-0c-0.096-0.071-0.217-0.114-0.347-0.114-0.015 0-0.030 0.001-0.045 0.002l0.002-0c-0.013-0.001-0.029-0.002-0.044-0.002-0.138 0-0.265 0.045-0.367 0.121l0.002-0.001c-0.090 0.081-0.154 0.19-0.177 0.313l-0.001 0.004c-0.027 0.14-0.042 0.302-0.042 0.467 0 0.016 0 0.032 0 0.048l-0-0.002v2.518c-0.017 0.243 0.031 0.486 0.138 0.707 0.054 0.075 0.128 0.134 0.215 0.171s0.183 0.051 0.278 0.040c0.014 0.001 0.029 0.002 0.045 0.002 0.127 0 0.244-0.044 0.337-0.117l-0.001 0.001c0.084-0.079 0.143-0.184 0.161-0.303l0-0.003c0.025-0.167 0.036-0.336 0.033-0.505v-0.511h1.077v0.466c0.030 0.462-0.101 0.92-0.372 1.304-0.247 0.308-0.669 0.462-1.289 0.462s-1.088-0.165-1.353-0.507zM35.607 14.876c-0.272-0.323-0.408-0.794-0.408-1.416v-2.182c0-0.616 0.136-1.083 0.408-1.399s0.727-0.474 1.364-0.473c0.633 0 1.086 0.158 1.358 0.473 0.272 0.317 0.41 0.783 0.41 1.399v2.182c0 0.616-0.138 1.089-0.415 1.414s-0.727 0.488-1.353 0.488-1.090-0.165-1.364-0.485zM37.474 14.352c0.097-0.202 0.142-0.424 0.129-0.646v-2.672c0.001-0.022 0.002-0.048 0.002-0.074 0-0.204-0.048-0.396-0.132-0.567l0.003 0.007c-0.055-0.076-0.131-0.137-0.22-0.174s-0.187-0.050-0.284-0.037c-0.097-0.013-0.195 0-0.285 0.037s-0.166 0.097-0.221 0.174c-0.083 0.163-0.131 0.355-0.131 0.559 0 0.026 0.001 0.052 0.002 0.078l-0-0.004v2.685c-0.014 0.222 0.031 0.444 0.129 0.646 0.063 0.068 0.14 0.123 0.227 0.16 0.082 0.036 0.177 0.056 0.277 0.056s0.195-0.021 0.282-0.058l-0.005 0.002c0.089-0.039 0.164-0.093 0.227-0.16l0-0v-0.013zM40.035 9.468h1.159l0.872 4.027 0.892-4.027h1.128l0.114 5.812h-0.834l-0.089-4.040-0.861 4.040h-0.669l-0.892-4.054-0.082 4.054h-0.843l0.105-5.812zM45.5 9.468h1.806c1.040 0 1.561 0.55 1.561 1.65 0 1.054-0.548 1.58-1.643 1.579h-0.615v2.583h-1.115l0.007-5.812zM47.042 11.952c0.11 0.013 0.222 0.004 0.328-0.028s0.203-0.085 0.285-0.156c0.128-0.196 0.184-0.427 0.16-0.656 0.001-0.020 0.001-0.043 0.001-0.066 0-0.164-0.020-0.323-0.057-0.476l0.003 0.014c-0.016-0.058-0.044-0.112-0.082-0.159s-0.086-0.087-0.141-0.117c-0.129-0.060-0.281-0.095-0.44-0.095-0.020 0-0.040 0.001-0.060 0.002l0.003-0h-0.432v1.737h0.432zM50.474 9.468h1.197l1.228 5.812h-1.039l-0.243-1.34h-1.068l-0.25 1.34h-1.055l1.228-5.812zM51.497 13.267l-0.417-2.44-0.417 2.44h0.834zM53.892 9.468h0.78l1.494 3.316v-3.316h0.925v5.812h-0.742l-1.503-3.461v3.461h-0.957l0.002-5.812zM59.258 13.064l-1.242-3.588h1.046l0.758 2.305 0.711-2.305h1.023l-1.226 3.588v2.216h-1.070v-2.216zM32.845 17.822v0.304h-0.91v2.362h-0.381v-2.362h-0.914v-0.304h2.205zM35.697 20.488h-0.294c-0.002 0-0.005 0-0.008 0-0.028 0-0.054-0.009-0.075-0.025l0 0c-0.022-0.015-0.038-0.036-0.049-0.060l-0-0.001-0.263-0.633h-1.262l-0.263 0.633c-0.008 0.028-0.022 0.052-0.040 0.072l0-0c-0.020 0.016-0.046 0.025-0.074 0.025-0.003 0-0.006-0-0.009-0l0 0h-0.294l1.115-2.666h0.388l1.128 2.655zM33.85 19.498h1.052l-0.446-1.085c-0.028-0.066-0.056-0.15-0.079-0.235l-0.004-0.016-0.042 0.141-0.040 0.112-0.441 1.083zM37.618 20.226c0.032 0.003 0.070 0.005 0.107 0.005 0.1 0 0.196-0.014 0.288-0.039l-0.008 0.002c0.055-0.013 0.108-0.029 0.16-0.049 0.049-0.019 0.098-0.042 0.149-0.065v-0.599h-0.446c-0.011 0.001-0.022-0.001-0.032-0.005-0.020-0.007-0.035-0.021-0.045-0.039l-0-0c-0.003-0.006-0.005-0.014-0.005-0.022 0-0.002 0-0.003 0-0.005l-0 0v-0.205h0.865v1.022c-0.135 0.094-0.291 0.168-0.459 0.215l-0.011 0.003c-0.079 0.023-0.173 0.042-0.27 0.054l-0.009 0.001c-0.097 0.011-0.21 0.017-0.325 0.017h-0c-0.004 0-0.010 0-0.015 0-0.197 0-0.385-0.036-0.558-0.103l0.011 0.004c-0.173-0.066-0.321-0.161-0.447-0.28l0.001 0.001c-0.12-0.117-0.217-0.258-0.285-0.414l-0.003-0.008c-0.065-0.16-0.103-0.345-0.103-0.539 0-0.005 0-0.010 0-0.015v0.001c-0.002-0.19 0.032-0.379 0.1-0.557 0.064-0.158 0.162-0.302 0.288-0.422 0.127-0.12 0.279-0.214 0.446-0.277 0.191-0.068 0.394-0.102 0.597-0.099 0.104 0 0.207 0.008 0.31 0.023 0.183 0.030 0.347 0.091 0.495 0.178l-0.007-0.004c0.068 0.042 0.133 0.088 0.194 0.139l-0.107 0.165c-0.017 0.031-0.049 0.051-0.086 0.051-0 0-0.001 0-0.001 0h0c-0.026-0.001-0.049-0.008-0.070-0.021l0.001 0c-0.045-0.023-0.080-0.044-0.115-0.067l0.006 0.004c-0.042-0.026-0.091-0.050-0.142-0.070l-0.007-0.002c-0.057-0.023-0.126-0.043-0.197-0.058l-0.008-0.001c-0.081-0.015-0.174-0.023-0.268-0.023-0.005 0-0.010 0-0.015 0h0.001c-0.005-0-0.011-0-0.017-0-0.148 0-0.29 0.027-0.421 0.077l0.008-0.003c-0.128 0.049-0.237 0.121-0.328 0.211l0-0c-0.089 0.092-0.159 0.202-0.205 0.325l-0.002 0.006c-0.1 0.289-0.1 0.6 0 0.889 0.1 0.252 0.296 0.447 0.541 0.545l0.007 0.002c0.142 0.046 0.292 0.064 0.441 0.053zM41.172 20.184h1.217v0.304h-1.59v-2.666h0.381l-0.009 2.362zM43.656 20.488h-0.381v-2.666h0.381v2.666zM45.074 17.834c0.023 0.012 0.042 0.029 0.058 0.049l0 0 1.63 2.009c-0.001-0.014-0.002-0.031-0.002-0.047s0.001-0.033 0.002-0.050l-0 0.002v-1.987h0.332v2.676h-0.192c-0.004 0-0.008 0-0.012 0-0.026 0-0.050-0.006-0.072-0.016l0.001 0c-0.024-0.013-0.044-0.030-0.060-0.051l-0-0-1.628-2.007v2.073h-0.319v-2.666h0.198c0.022 0 0.043 0.004 0.062 0.013zM49.901 17.822v0.293h-1.351v0.88h1.095v0.283h-1.095v0.91h1.351v0.293h-1.743v-2.659h1.743zM9.95 1.359l16.929 4.551v15.946l-16.929-4.548v-15.948zM8.864 0v18.082l19.098 5.135v-18.080l-19.098-5.137z"></path>
<path fill="#afb1b8" d="M19.1 31.611l-19.1-5.139v-18.080l19.1 5.137v18.082z"></path>
<path fill="#afb1b8" d="M9.181 1.155l16.708 4.493-7.105 6.729-16.71-4.496 7.108-6.726zM8.864 0l-8.864 8.392 19.1 5.137 8.862-8.392-19.098-5.137zM20.175 30.593l7.788-7.374-7.788-2.096v9.47z"></path>
</svg>
