<!-- Generated by IcoMoon.io -->
<svg version="1.1" xmlns="http://www.w3.org/2000/svg" width="29" height="32" viewBox="0 0 29 32">
<title>client-logo-1</title>
<path fill="#afb1b8" d="M3.84 0l4.677 4.428h13.046v12.351l4.677 4.428v-21.206h-22.4z"></path>
<path fill="#afb1b8" d="M0 4.241v20.6h21.76v-8.188l-13.105-12.406-8.655-0.005zM17.615 21.828h-14.172v-13.854h1.002v12.916h13.17v0.938zM6.266 28.662l0.523-1.078h0.438l-0.763 1.438v0.837h-0.397v-0.837l-0.764-1.438h0.439l0.523 1.078zM8.513 29.329h-0.881l-0.184 0.53h-0.411l0.859-2.275h0.355l0.861 2.275h-0.412l-0.186-0.53zM7.743 29.010h0.659l-0.33-0.944-0.33 0.944zM10.071 29.244c0-0.105 0.029-0.202 0.086-0.289 0.057-0.089 0.17-0.193 0.339-0.314-0.088-0.111-0.151-0.206-0.186-0.284s-0.052-0.154-0.052-0.227c0-0.178 0.054-0.319 0.162-0.422s0.254-0.156 0.438-0.156c0.007-0 0.015-0 0.023-0 0.147 0 0.282 0.056 0.383 0.148l-0-0c0.098 0.087 0.159 0.212 0.159 0.352 0 0.003-0 0.006-0 0.009v-0c0 0.001 0 0.002 0 0.003 0 0.096-0.027 0.185-0.073 0.261l0.001-0.002c-0.064 0.094-0.142 0.174-0.233 0.236l-0.003 0.002-0.155 0.113 0.439 0.519c0.060-0.117 0.095-0.256 0.095-0.403 0-0.005-0-0.010-0-0.015v0.001h0.33c0 0.28-0.066 0.51-0.197 0.689l0.334 0.395h-0.441l-0.128-0.152c-0.162 0.122-0.356 0.183-0.581 0.183s-0.405-0.059-0.541-0.178c-0.124-0.11-0.202-0.27-0.202-0.449 0-0.006 0-0.013 0-0.019l-0 0.001zM10.824 29.587c0.137-0.001 0.262-0.049 0.36-0.129l-0.001 0.001-0.497-0.586-0.048 0.034c-0.125 0.095-0.188 0.203-0.188 0.325 0 0.105 0.034 0.191 0.102 0.256s0.158 0.098 0.272 0.098zM10.615 28.121c0 0.087 0.054 0.197 0.161 0.33l0.173-0.119 0.048-0.039c0.060-0.052 0.097-0.127 0.097-0.212 0-0.003-0-0.006-0-0.008v0c0-0.001 0-0.002 0-0.003 0-0.059-0.026-0.113-0.067-0.149l-0-0c-0.042-0.040-0.099-0.064-0.162-0.064-0.003 0-0.006 0-0.009 0h0c-0.074 0-0.133 0.025-0.177 0.075s-0.066 0.113-0.066 0.189zM14.748 29.118c-0.012 0.226-0.113 0.427-0.268 0.568l-0.001 0.001c-0.156 0.135-0.364 0.203-0.623 0.203-0.005 0-0.011 0-0.017 0-0.171 0-0.331-0.048-0.467-0.13l0.004 0.002c-0.137-0.086-0.244-0.209-0.319-0.367s-0.114-0.342-0.117-0.552v-0.212c0-0.215 0.038-0.404 0.114-0.567 0.137-0.304 0.437-0.512 0.786-0.512 0.012 0 0.024 0 0.036 0.001l-0.002-0c0.251 0 0.453 0.068 0.606 0.205s0.242 0.329 0.267 0.578h-0.394c-0.019-0.164-0.067-0.281-0.144-0.353s-0.188-0.109-0.336-0.109c-0.007-0-0.015-0.001-0.023-0.001-0.153 0-0.289 0.074-0.373 0.188l-0.001 0.001c-0.092 0.125-0.139 0.309-0.141 0.552v0.202c0 0.246 0.044 0.433 0.131 0.563s0.218 0.194 0.387 0.194c0.155 0 0.272-0.035 0.35-0.105s0.128-0.186 0.148-0.348h0.394zM16.918 28.78c0 0.223-0.039 0.419-0.116 0.588-0.072 0.162-0.186 0.294-0.328 0.386l-0.003 0.002c-0.135 0.084-0.299 0.134-0.474 0.134-0.007 0-0.014-0-0.021-0l0.001 0c-0.004 0-0.009 0-0.014 0-0.177 0-0.343-0.050-0.484-0.136l0.004 0.002c-0.146-0.094-0.26-0.225-0.332-0.38l-0.002-0.006c-0.075-0.164-0.119-0.355-0.119-0.557 0-0.007 0-0.013 0-0.020v0.001-0.128c0-0.222 0.039-0.418 0.117-0.588 0.073-0.162 0.187-0.294 0.33-0.387l0.003-0.002c0.144-0.091 0.308-0.136 0.494-0.136s0.349 0.045 0.492 0.134c0.144 0.088 0.255 0.217 0.333 0.384s0.118 0.361 0.119 0.583v0.127zM16.523 28.662c0-0.252-0.048-0.445-0.144-0.58-0.086-0.123-0.226-0.202-0.385-0.202-0.007 0-0.014 0-0.021 0l0.001-0c-0.005-0-0.011-0-0.017-0-0.159 0-0.299 0.079-0.384 0.201l-0.001 0.002c-0.096 0.133-0.145 0.322-0.147 0.567v0.131c0 0.25 0.048 0.443 0.145 0.58s0.233 0.205 0.406 0.205c0.006 0 0.014 0 0.021 0 0.158 0 0.297-0.079 0.381-0.199l0.001-0.002c0.095-0.133 0.142-0.328 0.142-0.584v-0.119z"></path>
</svg>
