<!-- Generated by IcoMoon.io -->
<svg version="1.1" xmlns="http://www.w3.org/2000/svg" width="31" height="32" viewBox="0 0 31 32">
<title>client-logo-3</title>
<path fill="#afb1b8" d="M4.722 31.103c0.023 0.001 0.044 0.010 0.059 0.025l-0-0 0.153 0.161c-0.119 0.13-0.266 0.234-0.431 0.305-0.168 0.069-0.364 0.11-0.569 0.11-0.015 0-0.030-0-0.044-0.001l0.002 0c-0.009 0-0.020 0-0.030 0-0.196 0-0.383-0.038-0.554-0.106l0.010 0.004c-0.331-0.134-0.587-0.397-0.709-0.724l-0.003-0.009c-0.062-0.165-0.098-0.356-0.098-0.555 0-0.006 0-0.011 0-0.017v0.001c-0.003-0.195 0.033-0.39 0.105-0.573 0.067-0.166 0.168-0.317 0.297-0.445 0.131-0.126 0.287-0.224 0.459-0.29 0.189-0.070 0.389-0.104 0.591-0.102 0.188-0.004 0.375 0.027 0.549 0.093 0.152 0.063 0.291 0.15 0.412 0.257l-0.128 0.171c-0.009 0.012-0.020 0.023-0.033 0.031l-0 0c-0.013 0.008-0.028 0.013-0.045 0.013-0.002 0-0.005-0-0.007-0l0 0c-0.021-0.002-0.040-0.008-0.057-0.018l0.001 0-0.069-0.046-0.096-0.058c-0.087-0.048-0.189-0.084-0.296-0.102l-0.006-0.001c-0.063-0.012-0.136-0.018-0.211-0.018-0.006 0-0.012 0-0.018 0h0.001c-0.005-0-0.011-0-0.017-0-0.147 0-0.287 0.028-0.416 0.080l0.008-0.003c-0.13 0.050-0.241 0.123-0.333 0.215l0-0c-0.092 0.095-0.165 0.21-0.214 0.336l-0.002 0.007c-0.054 0.145-0.080 0.298-0.078 0.452-0.002 0.156 0.024 0.312 0.078 0.46 0.047 0.126 0.119 0.242 0.212 0.341 0.087 0.091 0.193 0.163 0.312 0.21l0.006 0.002c0.125 0.049 0.259 0.074 0.394 0.073 0.078 0.001 0.156-0.004 0.234-0.015 0.133-0.016 0.253-0.059 0.358-0.124l-0.004 0.002c0.054-0.034 0.104-0.072 0.151-0.113 0.019-0.017 0.045-0.028 0.073-0.029h0zM9.144 30.296c0.002 0.194-0.033 0.386-0.103 0.567-0.062 0.165-0.161 0.315-0.288 0.44s-0.282 0.224-0.452 0.289c-0.173 0.065-0.373 0.102-0.582 0.102s-0.409-0.037-0.594-0.106l0.012 0.004c-0.341-0.132-0.607-0.395-0.738-0.726l-0.003-0.009c-0.066-0.169-0.104-0.364-0.104-0.568s0.038-0.399 0.107-0.579l-0.004 0.011c0.065-0.166 0.164-0.317 0.291-0.447 0.128-0.121 0.281-0.216 0.45-0.279 0.374-0.139 0.79-0.139 1.164 0 0.17 0.066 0.324 0.165 0.452 0.29 0.126 0.127 0.224 0.276 0.289 0.44 0.071 0.183 0.106 0.376 0.103 0.571zM8.742 30.296c0-0.007 0-0.015 0-0.024 0-0.155-0.027-0.304-0.076-0.442l0.003 0.009c-0.086-0.256-0.278-0.457-0.522-0.554l-0.006-0.002c-0.126-0.048-0.271-0.075-0.423-0.075s-0.297 0.027-0.431 0.078l0.008-0.003c-0.251 0.099-0.444 0.299-0.529 0.55l-0.002 0.006c-0.046 0.136-0.073 0.293-0.073 0.456s0.027 0.32 0.076 0.466l-0.003-0.010c0.086 0.257 0.279 0.457 0.525 0.552l0.006 0.002c0.273 0.097 0.573 0.097 0.846 0 0.251-0.097 0.443-0.297 0.526-0.548l0.002-0.006c0.051-0.147 0.076-0.301 0.073-0.456zM12.161 30.774l0.040 0.102c0.023-0.057 0.038-0.090 0.053-0.124l-0.009 0.022c0.017-0.040 0.034-0.073 0.052-0.104l-0.002 0.004 0.978-1.694c0.019-0.029 0.036-0.047 0.056-0.053s0.041-0.010 0.064-0.010c0.006 0 0.011 0 0.017 0.001l-0.001-0h0.289v2.755h-0.343v-2.112c-0.001-0.014-0.002-0.031-0.002-0.047s0.001-0.033 0.002-0.050l-0 0.002-0.984 1.718c-0.012 0.026-0.033 0.047-0.058 0.063s-0.054 0.023-0.084 0.023h-0.056c-0.001 0-0.002 0-0.003 0-0.060 0-0.113-0.035-0.138-0.085l-0-0.001-1.013-1.729v2.213h-0.331v-2.75h0.289c0.004-0 0.009-0 0.014-0 0.024 0 0.047 0.003 0.068 0.010l-0.002-0c0.024 0.011 0.043 0.030 0.054 0.053l0.999 1.696c0.020 0.031 0.036 0.064 0.050 0.098zM15.842 30.638v1.032h-0.383v-2.752h0.854c0.010-0 0.021-0 0.032-0 0.158 0 0.311 0.022 0.457 0.063l-0.012-0.003c0.13 0.035 0.242 0.094 0.339 0.172l-0.002-0.001c0.083 0.072 0.148 0.163 0.189 0.265l0.002 0.005c0.041 0.1 0.065 0.216 0.065 0.337 0 0.005-0 0.010-0 0.016v-0.001c0 0.004 0 0.009 0 0.014 0 0.122-0.026 0.239-0.073 0.344l0.002-0.005c-0.049 0.11-0.119 0.202-0.206 0.274l-0.001 0.001c-0.095 0.080-0.208 0.143-0.332 0.18l-0.007 0.002c-0.13 0.041-0.279 0.064-0.434 0.064-0.009 0-0.019-0-0.028-0l-0.462-0.007zM15.842 30.342h0.463c0.003 0 0.007 0 0.011 0 0.102 0 0.2-0.015 0.293-0.044l-0.007 0.002c0.083-0.027 0.154-0.067 0.215-0.12l-0.001 0.001c0.056-0.049 0.1-0.11 0.129-0.179l0.001-0.003c0.029-0.067 0.046-0.145 0.046-0.226 0-0.002 0-0.004-0-0.006v0c0-0.007 0.001-0.016 0.001-0.024 0-0.154-0.066-0.292-0.172-0.387l-0-0c-0.126-0.094-0.284-0.15-0.456-0.15-0.021 0-0.042 0.001-0.062 0.002l0.003-0h-0.463v1.134zM20.987 31.673h-0.302c-0.001 0-0.003 0-0.005 0-0.030 0-0.057-0.010-0.079-0.026l0 0c-0.021-0.017-0.039-0.038-0.050-0.063l-0-0.001-0.26-0.666h-1.307l-0.27 0.666c-0.010 0.025-0.027 0.046-0.048 0.062l-0 0c-0.022 0.017-0.050 0.027-0.080 0.027-0.002 0-0.004-0-0.006-0h-0.302l1.148-2.756h0.398l1.164 2.756zM19.092 30.65h1.080l-0.456-1.122c-0.031-0.071-0.060-0.157-0.083-0.246l-0.003-0.013-0.044 0.144c-0.013 0.044-0.029 0.084-0.042 0.117l-0.452 1.12zM22.641 28.931c0.023 0.012 0.042 0.028 0.057 0.049l0 0 1.675 2.077v-2.139h0.343v2.756h-0.191c-0.002 0-0.003 0-0.005 0-0.026 0-0.051-0.006-0.074-0.017l0.001 0c-0.024-0.013-0.044-0.030-0.061-0.051l-0-0-1.673-2.075c0.001 0.014 0.002 0.031 0.002 0.047s-0.001 0.033-0.002 0.050l0-0.002v2.048h-0.343v-2.756h0.203c0.002-0 0.003-0 0.005-0 0.023 0 0.045 0.005 0.065 0.014l-0.001-0zM27.537 30.577v1.094h-0.383v-1.094l-1.059-1.66h0.343c0.002-0 0.005-0 0.008-0 0.028 0 0.054 0.009 0.075 0.024l-0-0c0.020 0.018 0.038 0.038 0.051 0.061l0.001 0.001 0.662 1.071c0.044 0.070 0.084 0.151 0.114 0.236l0.003 0.009 0.050-0.119c0.019-0.043 0.040-0.085 0.065-0.126l0.653-1.078c0.014-0.022 0.031-0.041 0.050-0.058l0-0c0.020-0.017 0.046-0.027 0.075-0.027 0.003 0 0.005 0 0.008 0l-0-0h0.346l-1.060 1.667zM11.971 24.293c0.167 0.020 0.335 0.036 0.505 0.051 2.583-1.101 4.768-2.902 6.282-5.18s2.29-4.929 2.231-7.624l-2.846-2.712c0.579 2.869 0.308 5.836-0.782 8.567s-2.956 5.12-5.389 6.898z"></path>
<path fill="#afb1b8" d="M10.955 24.167l0.077 0.015c2.6-1.772 4.583-4.247 5.691-7.104s1.292-5.965 0.526-8.922l-4.054-3.862c1.64 3.175 2.3 6.728 1.903 10.246s-1.833 6.857-4.143 9.628zM24.704 14.725c-0.689 2.961-2.362 5.632-4.77 7.616-0.665 0.553-1.406 1.066-2.191 1.511l-0.075 0.039c1.961-0.549 3.764-1.52 5.269-2.838s2.672-2.947 3.412-4.763l-1.644-1.565z"></path>
<path fill="#afb1b8" d="M24.059 14.289l-2.341-2.23c-0.045 2.543-0.803 5.028-2.197 7.197s-3.372 3.943-5.729 5.137h0.011c0.554-0 1.1-0.032 1.637-0.095l-0.065 0.006c2.203-0.857 4.148-2.219 5.664-3.967s2.553-3.825 3.021-6.047zM11.294 2.664l-2.793-2.664c-2.497 0.919-4.644 2.535-6.161 4.636s-2.332 4.589-2.34 7.139c0.009 2.818 1.005 5.552 2.829 7.77s4.372 3.793 7.242 4.476c2.561-2.973 4.061-6.647 4.281-10.488s-0.851-7.648-3.058-10.869zM30.512 13.878c-0.010-3.343-1.409-6.546-3.89-8.91s-5.843-3.696-9.352-3.706c-0.007 0-0.015-0-0.023-0-1.694 0-3.316 0.308-4.812 0.872l0.094-0.031 17.099 16.291c0.585-1.44 0.885-2.971 0.884-4.515z"></path>
</svg>
