<!-- Generated by IcoMoon.io -->
<svg version="1.1" xmlns="http://www.w3.org/2000/svg" width="40" height="32" viewBox="0 0 40 32">
<title>client-logo-5</title>
<path fill="#afb1b8" d="M3.055 26.742c0.156 0.194 0.24 0.438 0.236 0.688 0.001 0.016 0.001 0.034 0.001 0.053 0 0.324-0.141 0.615-0.365 0.815l-0.001 0.001c-0.261 0.2-0.593 0.321-0.953 0.321-0.038 0-0.076-0.001-0.113-0.004l0.005 0h-1.865v-4.361h1.827c0.361-0.024 0.718 0.078 1.012 0.29 0.218 0.184 0.355 0.458 0.355 0.764 0 0.018-0.001 0.037-0.002 0.055l0-0.003c0.011 0.241-0.065 0.477-0.212 0.667-0.139 0.169-0.331 0.29-0.549 0.34l-0.007 0.001c0.247 0.045 0.471 0.177 0.63 0.373zM0.868 26.084h0.781c0.016 0.001 0.035 0.002 0.055 0.002 0.166 0 0.32-0.055 0.443-0.148l-0.002 0.001c0.104-0.095 0.169-0.23 0.169-0.381 0-0.016-0.001-0.031-0.002-0.047l0 0.002c0.001-0.013 0.002-0.027 0.002-0.042 0-0.151-0.064-0.288-0.166-0.384l-0-0c-0.124-0.093-0.28-0.15-0.449-0.15-0.022 0-0.043 0.001-0.064 0.003l0.003-0h-0.768v1.144zM2.222 27.756c0.114-0.1 0.186-0.245 0.186-0.408 0-0.012-0-0.025-0.001-0.037l0 0.002c0-0.009 0.001-0.019 0.001-0.029 0-0.167-0.073-0.316-0.188-0.419l-0.001-0c-0.132-0.1-0.299-0.16-0.48-0.16-0.017 0-0.035 0.001-0.052 0.002l0.002-0h-0.819v1.199h0.83c0.014 0.001 0.031 0.001 0.047 0.001 0.179 0 0.344-0.057 0.479-0.154l-0.002 0.002zM6.79 28.617l-1.016-1.704h-0.382v1.704h-0.874v-4.361h1.655c0.417-0.029 0.83 0.104 1.152 0.371 0.245 0.251 0.397 0.595 0.397 0.974 0 0.313-0.103 0.601-0.277 0.833l0.003-0.004c-0.199 0.228-0.472 0.388-0.781 0.442l-0.008 0.001 1.082 1.743h-0.951zM5.392 26.318h0.715c0.497 0 0.745-0.22 0.745-0.66 0.001-0.012 0.001-0.026 0.001-0.040 0-0.175-0.070-0.334-0.184-0.45l0 0c-0.133-0.112-0.306-0.18-0.495-0.18-0.024 0-0.047 0.001-0.070 0.003l0.003-0h-0.724l0.008 1.327zM11.568 27.739h-1.742l-0.308 0.878h-0.917l1.6-4.312h0.991l1.593 4.312h-0.917l-0.301-0.878zM11.335 27.079l-0.637-1.841-0.637 1.841h1.273zM17.55 28.617h-0.868l-1.946-2.965v2.965h-0.866v-4.361h0.866l1.946 2.983v-2.983h0.868v4.361zM22.502 27.573c-0.182 0.33-0.45 0.593-0.775 0.764l-0.010 0.005c-0.335 0.174-0.732 0.276-1.153 0.276-0.024 0-0.047-0-0.071-0.001l0.003 0h-1.545v-4.361h1.545c0.422-0.011 0.841 0.081 1.22 0.268 0.332 0.168 0.606 0.433 0.785 0.761 0.172 0.333 0.272 0.727 0.272 1.144s-0.101 0.811-0.279 1.158l0.007-0.014zM21.509 27.469c0.239-0.278 0.385-0.643 0.385-1.041s-0.146-0.763-0.386-1.043l0.002 0.002c-0.264-0.232-0.612-0.374-0.993-0.374-0.033 0-0.065 0.001-0.097 0.003l0.004-0h-0.603v2.823h0.603c0.028 0.002 0.062 0.003 0.095 0.003 0.381 0 0.728-0.142 0.993-0.375l-0.002 0.001zM12.111 0s11.201 4.246 10.963 10.39v10.392s-11.193-4.248-10.959-10.392l-0.004-10.39zM33.054 18.349c2.005-1.402 4.428-2.346 7.050-2.627l0.067-0.006v-3.253c-2.995 1.181-5.437 3.226-7.082 5.826l-0.035 0.060z"></path>
<path fill="#afb1b8" d="M31.783 19.329c1.749-3.487 4.693-6.159 8.283-7.513l0.105-0.035v-9.374s-15.952 6.048-15.614 14.797v14.795s0.711-0.27 1.829-0.778c0-0.473 0-0.95 0.051-1.43 0.349-4.206 2.342-7.888 5.326-10.447l0.021-0.017z"></path>
<path fill="#afb1b8" d="M30.266 24.825c0.093-1.118 0.291-2.149 0.586-3.138l-0.028 0.109c-2.038 2.401-3.302 5.514-3.377 8.921l-0 0.016c0.906-0.437 1.96-0.982 3.068-1.623-0.191-0.908-0.3-1.952-0.3-3.021 0-0.445 0.019-0.885 0.056-1.32l-0.004 0.057zM30.9 24.878c-0.031 0.359-0.049 0.778-0.049 1.2 0 0.947 0.090 1.873 0.261 2.771l-0.015-0.092c4.358-2.618 9.255-6.664 9.067-11.553v-0.426c-3.246 0.375-6.107 1.789-8.297 3.894l0.005-0.004c-0.501 1.234-0.847 2.664-0.969 4.158l-0.003 0.052z"></path>
</svg>
